<?xml version="1.0" encoding="utf-8"?>
<!-- Generator: Adobe Illustrator 28.3.0, SVG Export Plug-In . SVG Version: 6.00 Build 0)  -->
<svg version="1.1" id="Layer_1" xmlns="http://www.w3.org/2000/svg" xmlns:xlink="http://www.w3.org/1999/xlink" x="0px" y="0px"
	 viewBox="0 0 57.2 46.3" style="enable-background:new 0 0 57.2 46.3;" xml:space="preserve">
<style type="text/css">
	.st0{fill:#92C840;}
</style>
<path class="st0" d="M44.7,0H12.6c-0.3,0-0.5,0.1-0.7,0.3l-11.6,14c-0.3,0.4-0.3,0.9,0,1.2L27.9,46c0,0,0,0,0,0c0,0,0,0,0,0
	c0,0,0,0,0,0c0,0,0,0,0.1,0.1c0,0,0,0,0,0c0,0,0,0,0.1,0c0,0,0,0,0,0c0,0,0,0,0.1,0c0,0,0,0,0,0c0,0,0.1,0,0.1,0c0,0,0,0,0,0
	c0,0,0.1,0,0.1,0c0,0,0,0,0,0c0,0,0,0,0.1,0c0,0,0,0,0,0c0,0,0.1,0,0.1,0c0,0,0.1,0,0.1,0c0,0,0,0,0,0c0,0,0,0,0.1,0c0,0,0,0,0,0
	c0,0,0.1,0,0.1,0c0,0,0,0,0,0c0,0,0.1,0,0.1,0c0,0,0,0,0,0c0,0,0,0,0.1,0c0,0,0,0,0,0c0,0,0,0,0.1,0c0,0,0,0,0,0c0,0,0,0,0.1-0.1
	c0,0,0,0,0,0c0,0,0,0,0,0c0,0,0,0,0,0L57,15.6c0.3-0.3,0.3-0.9,0-1.2l-11.6-14C45.2,0.1,45,0,44.7,0z M20.5,14.2l8.2-11.3l8.2,11.3
	H20.5z M37.3,16l-8.7,26l-8.7-26H37.3z M30.4,2.3H43l-4.6,11L30.4,2.3z M18.9,13.3l-4.6-11h12.6L18.9,13.3z M17.3,14.2H3.4l9.2-11.1
	L17.3,14.2z M18,16l8.4,25.1L3.5,16H18z M39.2,16h14.5L30.9,41.1L39.2,16z M40,14.2l4.7-11.1l9.2,11.1H40z"/>
</svg>
