<?xml version="1.0" encoding="utf-8"?>
<!-- Generator: Adobe Illustrator 28.3.0, SVG Export Plug-In . SVG Version: 6.00 Build 0)  -->
<svg version="1.1" id="Layer_1" xmlns="http://www.w3.org/2000/svg" xmlns:xlink="http://www.w3.org/1999/xlink" x="0px" y="0px"
	 viewBox="0 0 57.2 46.3" style="enable-background:new 0 0 57.2 46.3;" xml:space="preserve">
<style type="text/css">
	.st0{fill:#92C840;}
</style>
<g>
	<g>
		<g>
			<path class="st0" d="M45.5,15.5v4.1c0,5-0.9,9.4-2.7,13c-1.4,2.8-3.4,5.2-5.8,7c-2.2,1.6-4.4,2.5-5.9,3c-1.3,0.4-2.2,0.6-2.6,0.6
				c-0.3,0-1.3-0.2-2.6-0.6c-1.5-0.5-3.7-1.3-5.9-3c-2.4-1.8-4.4-4.2-5.8-7c-1.8-3.6-2.7-8-2.7-13v-7.1c2.4-0.5,4.8-1.3,7-2.2
				c2.1-0.9,4.1-1.9,6-3.1c1.8-1.1,3.1-2.2,3.9-2.9c0.8,0.7,2.1,1.8,3.9,2.9c1.5,1,3.2,1.9,4.9,2.6l1.7-2.4c-1.7-0.7-3.4-1.6-5-2.6
				c-2.9-1.9-4.5-3.5-4.5-3.5l-1-1.1l-1.1,1.1c0,0-1.6,1.6-4.5,3.5c-1.7,1.1-3.6,2-5.5,2.8c-2.4,1-4.9,1.7-7.5,2.2l-1.2,0.2v9.5
				c0,5.5,1,10.4,3,14.4c1.6,3.3,3.9,6,6.8,8c4.9,3.5,9.7,4,9.9,4.1l0.1,0l0.1,0c0.2,0,5-0.5,9.9-4.1c2.9-2.1,5.1-4.8,6.8-8
				c2-4,3-8.9,3-14.4v-8.2L45.5,15.5z"/>
			<path class="st0" d="M32.5,7.2c-1.8-1.1-3.1-2.2-3.9-2.9V0.2l1,1.1c0,0,1.6,1.6,4.5,3.5c1.6,1,3.2,1.9,5,2.6l-1.7,2.4
				C35.7,9.1,34.1,8.2,32.5,7.2z"/>
			<path class="st0" d="M48.4,11.4v8.2c0,5.5-1,10.4-3,14.4c-1.6,3.3-3.9,6-6.8,8c-4.9,3.5-9.7,4-9.9,4.1l-0.1,0v-2.9
				c0.4,0,1.3-0.2,2.6-0.6c1.5-0.5,3.7-1.3,5.9-3c2.4-1.8,4.4-4.2,5.8-7c1.8-3.6,2.7-8,2.7-13v-4.1L48.4,11.4z"/>
			<path class="st0" d="M27.4,35l-8.5-7c-0.7-0.6-0.8-1.6-0.2-2.3l1.9-2.3c0.6-0.7,1.6-0.8,2.3-0.2l4.7,3.9l14.8-21
				c0.5-0.7,1.5-0.9,2.3-0.4l2.4,1.7c0.7,0.5,0.9,1.5,0.4,2.3L29.8,34.7C29.3,35.4,28.2,35.6,27.4,35z"/>
		</g>
	</g>
</g>
</svg>
