<?xml version="1.0" encoding="utf-8"?>
<!-- Generator: Adobe Illustrator 28.3.0, SVG Export Plug-In . SVG Version: 6.00 Build 0)  -->
<svg version="1.1" id="Layer_1" xmlns="http://www.w3.org/2000/svg" xmlns:xlink="http://www.w3.org/1999/xlink" x="0px" y="0px"
	 viewBox="0 0 57.2 46.3" style="enable-background:new 0 0 57.2 46.3;" xml:space="preserve">
<style type="text/css">
	.st0{fill:#92C840;}
</style>
<g>
	<g>
		<g>
			<path class="st0" d="M29,41.3c-2.5,0-4.8-0.5-7.1-1.4c-2.2-0.9-4.1-2.2-5.8-3.9c-1.7-1.7-3-3.6-3.9-5.8c-0.9-2.2-1.4-4.6-1.4-7.1
				s0.5-4.8,1.4-7.1c0.9-2.2,2.2-4.1,3.9-5.8c1.7-1.7,3.6-3,5.8-3.9c2.2-0.9,4.6-1.4,7.1-1.4c2.7,0,5.2,0.6,7.6,1.7
				c1.6,0.7,3,1.7,4.3,2.8l-1.5,1.5c-0.8,0.8-0.3,2.1,0.8,2.2l6.4,0.4c0.8,0.1,1.4-0.6,1.4-1.4l-0.5-6.4c-0.1-1.1-1.4-1.6-2.2-0.8
				l-1.5,1.5c-0.5-0.4-1-0.8-1.5-1.2c-1.3-0.9-2.6-1.7-4-2.4c-3-1.4-6.1-2.1-9.4-2.1c-3,0-6,0.6-8.7,1.8c-2.7,1.1-5.1,2.7-7.1,4.8
				c-2.1,2.1-3.7,4.4-4.8,7.1c-1.2,2.8-1.8,5.7-1.8,8.7c0,3,0.6,6,1.8,8.7c1.1,2.7,2.7,5.1,4.8,7.1c2.1,2.1,4.4,3.7,7.1,4.8
				c2.8,1.2,5.7,1.8,8.7,1.8"/>
			<path class="st0" d="M29.2,9.9h-0.5c-0.2,0-0.4-0.2-0.4-0.4V7c0-0.2,0.2-0.4,0.4-0.4h0.5c0.2,0,0.4,0.2,0.4,0.4v2.5
				C29.7,9.7,29.5,9.9,29.2,9.9z"/>
			<path class="st0" d="M15.8,22.9v0.5c0,0.2-0.2,0.4-0.4,0.4h-2.5c-0.2,0-0.4-0.2-0.4-0.4v-0.5c0-0.2,0.2-0.4,0.4-0.4h2.5
				C15.6,22.5,15.8,22.7,15.8,22.9z"/>
			<path class="st0" d="M28.8,36.3h0.5c0.2,0,0.4,0.2,0.4,0.4v2.5c0,0.2-0.2,0.4-0.4,0.4h-0.5c-0.2,0-0.4-0.2-0.4-0.4v-2.5
				C28.3,36.5,28.5,36.3,28.8,36.3z"/>
			<path class="st0" d="M42.2,23.4l0-0.5c0-0.2,0.2-0.4,0.4-0.4h2.5c0.2,0,0.4,0.2,0.4,0.4v0.5c0,0.2-0.2,0.4-0.4,0.4h-2.5
				C42.4,23.8,42.2,23.6,42.2,23.4z"/>
			<path class="st0" d="M36.6,21.2c-0.1,0.2-0.3,0.4-0.6,0.5l-6.5,2.6c-0.6,0.3-1.3,0-1.6-0.6l-5.4-11.3c-0.3-0.6,0-1.4,0.6-1.7
				c0.6-0.3,1.4,0,1.7,0.6l4.9,10.2l5.4-2.2c0.7-0.3,1.4,0.1,1.7,0.7C36.9,20.4,36.8,20.9,36.6,21.2z"/>
		</g>
	</g>
	<g>
		<path class="st0" d="M32.6,39.9v-0.8c2.4-2.7,4.5-5.8,4.5-7.6c0-1.2-0.7-2-1.7-2c-0.8,0-1.6,0.2-2.1,0.6l-0.6-2.4
			c0.7-0.4,1.8-0.8,3.1-0.8c2.5,0,4.3,1.5,4.3,4.2c0,2-1.5,4.2-3.2,6.2h3.8v2.4H32.6z"/>
		<path class="st0" d="M49.3,36.9v3h-2.8v-3h-4.8l-0.5-2.1l5.6-7.5h2.5v7.3h1.3v2.4H49.3z M46.5,31.1c-0.2,0.4-0.5,0.8-0.8,1.2
			l-1.7,2.2h2.5v-2.3C46.5,31.9,46.5,31.6,46.5,31.1L46.5,31.1z"/>
	</g>
</g>
</svg>
