<?xml version="1.0" encoding="utf-8"?>
<!-- Generator: Adobe Illustrator 28.3.0, SVG Export Plug-In . SVG Version: 6.00 Build 0)  -->
<svg version="1.1" id="Layer_1" xmlns="http://www.w3.org/2000/svg" xmlns:xlink="http://www.w3.org/1999/xlink" x="0px" y="0px"
	 viewBox="0 0 57.2 46.3" style="enable-background:new 0 0 57.2 46.3;" xml:space="preserve">
<style type="text/css">
	.st0{fill:#92C840;}
</style>
<g>
	<path class="st0" d="M50,30.6c0.8-2.3,1.3-4.8,1.3-7.5c0-2.6-0.4-5.1-1.3-7.5c0-0.1,0-0.1-0.1-0.2c-3.1-8.7-11.5-15-21.3-15
		c-9.8,0-18.2,6.3-21.3,15c0,0.1-0.1,0.1-0.1,0.2c-0.8,2.3-1.3,4.8-1.3,7.5c0,2.6,0.4,5.1,1.3,7.5c0,0.1,0,0.1,0.1,0.2
		c3.2,8.7,11.5,15,21.3,15c9.8,0,18.2-6.3,21.3-15C50,30.7,50,30.7,50,30.6L50,30.6z M28.6,42.6c-0.9,0-2.3-1.6-3.4-5.1
		c-0.6-1.7-1-3.6-1.3-5.7h9.5c-0.3,2.1-0.8,4-1.3,5.7C30.9,41,29.5,42.6,28.6,42.6L28.6,42.6z M23.5,28.5c-0.2-1.7-0.2-3.5-0.2-5.4
		c0-1.9,0.1-3.7,0.2-5.4h10.3c0.2,1.7,0.2,3.5,0.2,5.4c0,1.9-0.1,3.7-0.2,5.4H23.5z M9.2,23.1c0-1.9,0.3-3.7,0.8-5.4h10.3
		c-0.2,1.8-0.2,3.6-0.2,5.4c0,1.8,0.1,3.6,0.2,5.4H10C9.5,26.8,9.2,25,9.2,23.1L9.2,23.1z M28.6,3.7c0.9,0,2.3,1.6,3.4,5.1
		c0.6,1.7,1,3.6,1.3,5.7h-9.5c0.3-2.1,0.8-4,1.3-5.7C26.4,5.3,27.8,3.7,28.6,3.7L28.6,3.7z M37,17.7h10.3c0.5,1.7,0.8,3.5,0.8,5.4
		c0,1.9-0.3,3.7-0.8,5.4H37c0.2-1.8,0.2-3.6,0.2-5.4C37.3,21.3,37.2,19.5,37,17.7L37,17.7z M46,14.5h-9.4c-0.6-4-1.6-7.6-3-10.1
		C39.1,5.8,43.6,9.6,46,14.5L46,14.5z M23.5,4.4c-1.4,2.5-2.4,6.1-3,10.1h-9.4C13.7,9.6,18.1,5.8,23.5,4.4L23.5,4.4z M11.2,31.8h9.4
		c0.6,4,1.6,7.6,3,10.1C18.1,40.4,13.7,36.7,11.2,31.8L11.2,31.8z M33.7,41.9c1.4-2.5,2.4-6.1,3-10.1H46
		C43.6,36.7,39.1,40.4,33.7,41.9L33.7,41.9z M33.7,41.9"/>
</g>
</svg>
