<?xml version="1.0" encoding="utf-8"?>
<!-- Generator: Adobe Illustrator 28.3.0, SVG Export Plug-In . SVG Version: 6.00 Build 0)  -->
<svg version="1.1" id="Layer_1" xmlns="http://www.w3.org/2000/svg" xmlns:xlink="http://www.w3.org/1999/xlink" x="0px" y="0px"
	 viewBox="0 0 95.6 95.6" style="enable-background:new 0 0 95.6 95.6;" xml:space="preserve">
<style type="text/css">
	.st0{clip-path:url(#SVGID_00000170266225341386850120000006203968821489212544_);fill:#92C840;}
	.st1{clip-path:url(#SVGID_00000079483593125219737990000002397802097063164076_);fill:#92C840;}
	.st2{clip-path:url(#SVGID_00000083808342093009556520000007221414549555369887_);fill:#92C840;}
</style>
<g>
	<defs>
		<rect id="SVGID_00000037678019145593150600000009550041202850548382_" x="1.4" y="12.1" width="92.7" height="71.3"/>
	</defs>
	<clipPath id="SVGID_00000175325087745390443510000015060910272125810856_">
		<use xlink:href="#SVGID_00000037678019145593150600000009550041202850548382_"  style="overflow:visible;"/>
	</clipPath>
	<path style="clip-path:url(#SVGID_00000175325087745390443510000015060910272125810856_);fill:#92C840;" d="M93.2,18.7
		c-0.1,0.2-0.2,0.3-0.4,0.5L61.2,55.1c-3.4,3.9-8.3,6.1-13.4,6.1s-10-2.2-13.4-6.1l-32-36.4c-0.6,1.3-0.9,2.8-0.9,4.3v41.2
		c0,10.6,8.6,19.2,19.2,19.2h54.2c10.6,0,19.2-8.6,19.2-19.2V23C94.1,21.5,93.8,20,93.2,18.7"/>
	<path style="clip-path:url(#SVGID_00000175325087745390443510000015060910272125810856_);fill:#92C840;" d="M41.5,48.7
		c1.6,1.8,3.8,2.8,6.2,2.8c2.4,0,4.6-1,6.2-2.8l31.6-35.9c0.1-0.1,0.2-0.2,0.4-0.3c-0.9-0.2-1.8-0.4-2.8-0.4H12.3
		c-1,0-1.9,0.1-2.8,0.4L41.5,48.7z"/>
</g>
</svg>
