<?xml version="1.0" encoding="utf-8"?>
<!-- Generator: Adobe Illustrator 28.3.0, SVG Export Plug-In . SVG Version: 6.00 Build 0)  -->
<svg version="1.1" id="Layer_1" xmlns="http://www.w3.org/2000/svg" xmlns:xlink="http://www.w3.org/1999/xlink" x="0px" y="0px"
	 viewBox="0 0 95.6 95.6" style="enable-background:new 0 0 95.6 95.6;" xml:space="preserve">
<style type="text/css">
	.st0{clip-path:url(#SVGID_00000124865026811293289280000016418689852641219209_);fill:#92C840;}
	.st1{clip-path:url(#SVGID_00000121237799822713629990000016254009003820796831_);fill:#92C840;}
	.st2{clip-path:url(#SVGID_00000142892552465219084860000001599698308433373076_);fill:#92C840;}
</style>
<g>
	<defs>
		<rect id="SVGID_1_" y="0" width="95.6" height="95.6"/>
	</defs>
	<clipPath id="SVGID_00000142148858860827274640000006976270009522157194_">
		<use xlink:href="#SVGID_1_"  style="overflow:visible;"/>
	</clipPath>
	<path style="clip-path:url(#SVGID_00000142148858860827274640000006976270009522157194_);fill:#92C840;" d="M88.2,69.1
		c-3-2.3-6.1-4.5-9.3-6.6c-6.2-4.3-11.9-4.6-16.6,2.3c-2.6,3.9-6.3,4-10.1,2.3c-10.5-4.7-18.7-11.9-23.5-22.4
		c-2.1-4.7-2.1-8.8,2.9-12.1c2.6-1.7,5.2-3.8,5-7.6c-0.3-5-12.5-21.5-17.4-23.3c-2-0.7-4-0.7-6,0C1.9,5.5-2.8,14.7,1.7,25.5
		c13.4,32.4,37.1,54.9,69.7,68.6c1.9,0.8,3.9,1.1,5,1.4c7.4,0.1,16.1-6.9,18.6-13.9C97.4,75,92.3,72.3,88.2,69.1"/>
	<path style="clip-path:url(#SVGID_00000142148858860827274640000006976270009522157194_);fill:#92C840;" d="M51.7,5.1
		c23.8,3.6,34.8,14.7,37.8,38.2c0.3,2.2-0.5,5.4,2.6,5.5c3.3,0.1,2.5-3.2,2.5-5.3C94.9,21.3,75.3,0.8,52.4,0.1
		c-1.7,0.2-5.3-1.2-5.5,2.6C46.7,5.2,49.7,4.8,51.7,5.1"/>
	<path style="clip-path:url(#SVGID_00000142148858860827274640000006976270009522157194_);fill:#92C840;" d="M56.4,11.6
		c-2.3-0.3-5.3-1.3-5.8,1.8c-0.6,3.3,2.8,2.9,5,3.4c14.7,3.2,19.8,8.5,22.2,22.8c0.4,2.1-0.3,5.3,3.3,4.8c2.7-0.4,1.7-3.2,1.9-4.8
		C83,25.8,71,13.3,56.4,11.6"/>
	<path style="clip-path:url(#SVGID_00000142148858860827274640000006976270009522157194_);fill:#92C840;" d="M57.7,22.8
		c-1.5,0-3,0.2-3.6,1.8c-0.8,2.4,0.9,3,2.7,3.2c6,0.9,9.2,4.4,9.8,10.3c0.2,1.6,1.2,2.9,2.8,2.7c2.2-0.3,2.4-2.2,2.3-4
		C71.9,30.3,64.2,22.6,57.7,22.8"/>
</g>
</svg>
