<?xml version="1.0" encoding="utf-8"?>
<!-- Generator: Adobe Illustrator 28.3.0, SVG Export Plug-In . SVG Version: 6.00 Build 0)  -->
<svg version="1.1" id="Layer_1" xmlns="http://www.w3.org/2000/svg" xmlns:xlink="http://www.w3.org/1999/xlink" x="0px" y="0px"
	 viewBox="0 0 95.6 95.6" style="enable-background:new 0 0 95.6 95.6;" xml:space="preserve">
<style type="text/css">
	.st0{clip-path:url(#SVGID_00000141446447350479945060000004297928316963174552_);fill:#92C840;}
	.st1{clip-path:url(#SVGID_00000107573845007126064660000010243689565788533183_);fill:#92C840;}
	.st2{clip-path:url(#SVGID_00000036968089753153390190000004709848975491415970_);fill:#92C840;}
</style>
<g>
	<defs>
		<rect id="SVGID_00000121965241242480320870000004603946365380445318_" x="11.1" y="1.7" width="73.4" height="92.1"/>
	</defs>
	<clipPath id="SVGID_00000003797358412220324440000009239268199454002861_">
		<use xlink:href="#SVGID_00000121965241242480320870000004603946365380445318_"  style="overflow:visible;"/>
	</clipPath>
	<path style="clip-path:url(#SVGID_00000003797358412220324440000009239268199454002861_);fill:#92C840;" d="M47.8,1.7
		c-20.3,0-36.7,16.4-36.7,36.7c0,14.8,19.6,39.9,30.1,52.3c3.4,4.1,9.7,4.1,13.2,0c10.6-12.5,30.1-37.5,30.1-52.3
		C84.5,18.2,68.1,1.7,47.8,1.7 M47.8,45.5c-4.8,0-8.8-3.9-8.8-8.8c0-4.8,3.9-8.8,8.8-8.8s8.8,3.9,8.8,8.8
		C56.6,41.5,52.6,45.5,47.8,45.5"/>
</g>
</svg>
