<?xml version="1.0" encoding="utf-8"?>
<!-- Generator: Adobe Illustrator 28.3.0, SVG Export Plug-In . SVG Version: 6.00 Build 0)  -->
<svg version="1.1" id="Layer_1" xmlns="http://www.w3.org/2000/svg" xmlns:xlink="http://www.w3.org/1999/xlink" x="0px" y="0px"
	 viewBox="0 0 79.5 48" style="enable-background:new 0 0 79.5 48;" xml:space="preserve">
<style type="text/css">
	.st0{clip-path:url(#SVGID_00000098190061149206352300000006406221027902932909_);fill:#92C83F;}
	.st1{fill:#91C73F;}
	.st2{fill:#FFFFFF;}
	.st3{fill:#EF091F;}
	.st4{fill:#001F80;}
</style>
<g>
	<rect x="1.8" y="4" class="st2" width="75.9" height="40"/>
	<polygon class="st3" points="35.2,4 35.2,20 1.8,20 1.8,28 35.2,28 35.2,44 44.3,44 44.3,28 77.7,28 77.7,20 44.3,20 44.3,4 	"/>
	<polygon class="st4" points="1.8,17.4 18.3,17.4 1.8,8.7 	"/>
	<polygon class="st4" points="10.9,4 10.7,4 32.1,15.4 32.1,4 	"/>
	<polygon class="st3" points="1.8,7.1 21.2,17.3 27.3,17.3 1.8,4 	"/>
	<polygon class="st3" points="52.2,30.7 77.7,44 77.7,40.8 58.3,30.7 	"/>
	<polygon class="st4" points="1.8,30.7 1.8,39.4 18.3,30.7 	"/>
	<polygon class="st4" points="10.7,44 10.9,44.1 32.1,44.1 32.1,32.7 	"/>
	<polygon class="st3" points="27.1,30.7 1.8,44 7.7,44 32.2,31.2 32.2,30.7 	"/>
	<polygon class="st4" points="61.2,17.4 77.7,17.4 77.7,8.7 	"/>
	<polygon class="st4" points="47.4,4 47.4,15.4 68.8,4 68.6,4 	"/>
	<polygon class="st3" points="47.4,16.9 47.4,17.3 52.6,17.3 77.7,4 72,4 	"/>
	<polygon class="st4" points="61.2,30.7 77.7,39.4 77.7,30.7 	"/>
	<polygon class="st4" points="47.4,44 68.6,44 68.8,44 47.4,32.7 	"/>
</g>
</svg>
