<?xml version="1.0" encoding="utf-8"?>
<!-- Generator: Adobe Illustrator 28.3.0, SVG Export Plug-In . SVG Version: 6.00 Build 0)  -->
<svg version="1.1" id="Layer_1" xmlns="http://www.w3.org/2000/svg" xmlns:xlink="http://www.w3.org/1999/xlink" x="0px" y="0px"
	 viewBox="0 0 59.8 59.8" style="enable-background:new 0 0 59.8 59.8;" xml:space="preserve">
<style type="text/css">
	.st0{clip-path:url(#SVGID_00000129175619633928743530000010250790703265086392_);fill:#92C83F;}
	.st1{fill:#91C73F;}
	.st2{fill:#FFFFFF;}
	.st3{fill:#EF091F;}
	.st4{fill:#001F80;}
</style>
<g>
	<defs>
		<rect id="SVGID_1_" x="0" y="0" width="59.8" height="59.8"/>
	</defs>
	<clipPath id="SVGID_00000013885658798080963420000012827472192766896044_">
		<use xlink:href="#SVGID_1_"  style="overflow:visible;"/>
	</clipPath>
	<path style="clip-path:url(#SVGID_00000013885658798080963420000012827472192766896044_);fill:#92C83F;" d="M30.4,11.3h-1
		c-0.2,0-0.4-0.2-0.4-0.4V7c0-0.2,0.2-0.4,0.4-0.4h1c0.2,0,0.4,0.2,0.4,0.4v3.9C30.9,11.1,30.7,11.3,30.4,11.3"/>
	<path style="clip-path:url(#SVGID_00000013885658798080963420000012827472192766896044_);fill:#92C83F;" d="M11.3,29.4v1
		c0,0.2-0.2,0.4-0.4,0.4H7c-0.2,0-0.4-0.2-0.4-0.4v-1C6.6,29.2,6.8,29,7,29h3.9C11.1,29,11.3,29.2,11.3,29.4"/>
	<path style="clip-path:url(#SVGID_00000013885658798080963420000012827472192766896044_);fill:#92C83F;" d="M29.4,48.5h1
		c0.2,0,0.4,0.2,0.4,0.4v3.9c0,0.2-0.2,0.4-0.4,0.4h-1c-0.2,0-0.4-0.2-0.4-0.4v-3.9C29,48.7,29.2,48.5,29.4,48.5"/>
	<path style="clip-path:url(#SVGID_00000013885658798080963420000012827472192766896044_);fill:#92C83F;" d="M48.5,30.4v-1
		c0-0.2,0.2-0.4,0.4-0.4h3.9c0.2,0,0.4,0.2,0.4,0.4v1c0,0.2-0.2,0.4-0.4,0.4h-3.9C48.7,30.9,48.5,30.7,48.5,30.4"/>
	<path style="clip-path:url(#SVGID_00000013885658798080963420000012827472192766896044_);fill:#92C83F;" d="M40.6,27.2
		c-0.2,0.3-0.5,0.5-0.8,0.7l-9.2,3.7c-0.9,0.4-1.9,0-2.3-0.9l-7.7-15.8c-0.4-0.9-0.1-2,0.8-2.4c0.9-0.4,2-0.1,2.4,0.8l6.9,14.3
		l7.6-3.1c0.9-0.4,2,0.1,2.4,1C41,26.1,40.9,26.7,40.6,27.2"/>
	<path style="clip-path:url(#SVGID_00000013885658798080963420000012827472192766896044_);fill:#92C83F;" d="M29.9,0
		C13.4,0,0,13.4,0,29.9s13.4,29.9,29.9,29.9s29.9-13.4,29.9-29.9S46.4,0,29.9,0 M29.9,56.3c-14.5,0-26.3-11.8-26.3-26.3
		c0-14.5,11.8-26.3,26.3-26.3s26.3,11.8,26.3,26.3C56.3,44.5,44.5,56.3,29.9,56.3"/>
</g>
</svg>
